<svg width="137" height="33" viewBox="0 0 137 33" fill="none" xmlns="http://www.w3.org/2000/svg">
<path d="M0.744148 31.9675L8.84015 1.16753H18.9601L27.0562 31.9675H21.0721L19.4001 25.1915H8.40015L6.72815 31.9675H0.744148ZM9.76415 19.8235H18.0361L14.2961 4.81953H13.5041L9.76415 19.8235ZM39.9829 32.5835C37.1375 32.5835 34.8055 31.9675 32.9869 30.7355C31.1682 29.5035 30.0682 27.7435 29.6869 25.4555L34.7909 24.1355C34.9962 25.1622 35.3335 25.9689 35.8029 26.5555C36.3015 27.1422 36.9029 27.5675 37.6069 27.8315C38.3402 28.0662 39.1322 28.1835 39.9829 28.1835C41.2735 28.1835 42.2269 27.9635 42.8429 27.5235C43.4589 27.0542 43.7669 26.4822 43.7669 25.8075C43.7669 25.1329 43.4735 24.6195 42.8869 24.2675C42.3002 23.8862 41.3615 23.5782 40.0709 23.3435L38.8389 23.1235C37.3135 22.8302 35.9202 22.4342 34.6589 21.9355C33.3975 21.4075 32.3855 20.6889 31.6229 19.7795C30.8602 18.8702 30.4789 17.6969 30.4789 16.2595C30.4789 14.0889 31.2709 12.4315 32.8549 11.2875C34.4389 10.1142 36.5215 9.52753 39.1029 9.52753C41.5375 9.52753 43.5615 10.0702 45.1749 11.1555C46.7882 12.2409 47.8442 13.6635 48.3429 15.4235L43.1949 17.0075C42.9602 15.8929 42.4762 15.1009 41.7429 14.6315C41.0389 14.1622 40.1589 13.9275 39.1029 13.9275C38.0469 13.9275 37.2402 14.1182 36.6829 14.4995C36.1255 14.8515 35.8469 15.3502 35.8469 15.9955C35.8469 16.6995 36.1402 17.2275 36.7269 17.5795C37.3135 17.9022 38.1055 18.1515 39.1029 18.3275L40.3349 18.5475C41.9775 18.8409 43.4589 19.2369 44.7789 19.7355C46.1282 20.2049 47.1842 20.8942 47.9469 21.8035C48.7389 22.6835 49.1349 23.8862 49.1349 25.4115C49.1349 27.6995 48.2989 29.4742 46.6269 30.7355C44.9842 31.9675 42.7695 32.5835 39.9829 32.5835ZM61.9234 31.9675C60.4861 31.9675 59.3127 31.5275 58.4034 30.6475C57.5234 29.7382 57.0834 28.5355 57.0834 27.0395V14.7195H51.6274V10.1435H57.0834V3.36753H62.6274V10.1435H68.6114V14.7195H62.6274V26.0715C62.6274 26.9515 63.0381 27.3915 63.8594 27.3915H68.0834V31.9675H61.9234ZM73.6298 31.9675V10.1435H79.0858V12.6075H79.8778C80.2005 11.7275 80.7285 11.0822 81.4618 10.6715C82.2245 10.2609 83.1045 10.0555 84.1018 10.0555H86.7418V14.9835H84.0138C82.6058 14.9835 81.4471 15.3649 80.5378 16.1275C79.6285 16.8609 79.1738 18.0049 79.1738 19.5595V31.9675H73.6298ZM91.0751 31.9675V10.1435H96.6191V31.9675H91.0751ZM93.8471 7.59153C92.8498 7.59153 91.9991 7.26886 91.2951 6.62353C90.6205 5.97819 90.2831 5.12753 90.2831 4.07153C90.2831 3.01553 90.6205 2.16486 91.2951 1.51953C91.9991 0.874194 92.8498 0.551527 93.8471 0.551527C94.8738 0.551527 95.7245 0.874194 96.3991 1.51953C97.0738 2.16486 97.4111 3.01553 97.4111 4.07153C97.4111 5.12753 97.0738 5.97819 96.3991 6.62353C95.7245 7.26886 94.8738 7.59153 93.8471 7.59153ZM100.827 31.9675L108.747 20.9675L100.915 10.1435H107.339L112.311 17.4035H113.103L118.075 10.1435H124.499L116.667 20.9675L124.587 31.9675H118.075L113.103 24.6195H112.311L107.339 31.9675H100.827ZM132.278 32.5835C131.104 32.5835 130.107 32.2022 129.286 31.4395C128.494 30.6475 128.098 29.6355 128.098 28.4035C128.098 27.1715 128.494 26.1742 129.286 25.4115C130.107 24.6195 131.104 24.2235 132.278 24.2235C133.48 24.2235 134.478 24.6195 135.27 25.4115C136.062 26.1742 136.458 27.1715 136.458 28.4035C136.458 29.6355 136.062 30.6475 135.27 31.4395C134.478 32.2022 133.48 32.5835 132.278 32.5835Z" fill="black"/>
</svg>
